# xmcd
#
# Track frame offsets: 
#        150
#        18962
#        34985
#        50975
#        61692
#        77606
#        92300
#        104215
#        121397
#        142375
#        155189
#
# Disc length: 4167 seconds
#
# Revision: 0
# Processed by: cddbd v1.5.2PL0 Copyright (c) Steve Scherf et al.
# Submitted via: ExactAudioCopy v1.0b4
#
DISCID=9b10450b
DTITLE=Joe Cocker - I Can Stand a Little Rain (LP)
DYEAR=1974
DGENRE=Blues
TTITLE0=Put Out the Light
TTITLE1=I Can Stand a Little Rain
TTITLE2=I Get Mad
TTITLE3=Sing Me a Song
TTITLE4=The Moon Is a Harsh Mistress
TTITLE5=Don't Forget Me
TTITLE6=You Are So Beautiful
TTITLE7=It's a Sin
TTITLE8=Performance
TTITLE9=Guilty
TTITLE10=I Can Stand a Little Rain (LP)
EXTD=
EXTT0=
EXTT1=
EXTT2=
EXTT3=
EXTT4=
EXTT5=
EXTT6=
EXTT7=
EXTT8=
EXTT9=
EXTT10=
PLAYORDER=
